<svg id="Edit_Icon" xmlns="http://www.w3.org/2000/svg" xmlns:xlink="http://www.w3.org/1999/xlink" width="16" height="16" viewBox="0 0 16 16">
  <defs>
    <clipPath id="clip-path">
      <rect id="Rectangle_98" data-name="Rectangle 98" width="16" height="16" fill="#ffffff"/>
    </clipPath>
  </defs>
  <g id="Group_111" data-name="Group 111" clip-path="url(#clip-path)">
    <path id="Path_68" data-name="Path 68" d="M14.4,6.424V13.68a.724.724,0,0,1-.728.72H2.328a.724.724,0,0,1-.728-.72V2.328A.731.731,0,0,1,2.328,1.6H9.592l1.6-1.6H2.328A2.33,2.33,0,0,0,0,2.328V13.68A2.323,2.323,0,0,0,2.328,16H13.672A2.323,2.323,0,0,0,16,13.68V4.824Z" fill="#ffffff"/>
    <path id="Path_69" data-name="Path 69" d="M19.434,2.088V2.2a.1.1,0,0,0,.008-.048.176.176,0,0,0-.008-.064M17.29,0a.272.272,0,0,0-.08.008c.056,0,.12.008.184.008A.236.236,0,0,0,17.29,0" transform="translate(-3.442)" fill="#ffffff"/>
    <path id="Path_70" data-name="Path 70" d="M16.9,1.866c-.008-.032-.016-.056-.024-.08a.983.983,0,0,0-.216-.32L15.484.29a1,1,0,0,0-.392-.24.011.011,0,0,0-.016,0A1.655,1.655,0,0,0,14.9.018c-.064,0-.128-.008-.184-.008a.955.955,0,0,0-.608.28L12.8,1.6l-6.64,6.64a2.252,2.252,0,0,0-.48.736l-.888,2.328a.656.656,0,0,0,.616.9.631.631,0,0,0,.24-.04l2.336-.9a2.078,2.078,0,0,0,.728-.472l6.64-6.648L16.66,2.842a.924.924,0,0,0,.28-.64V2.09a2.193,2.193,0,0,0-.04-.224M7.86,9.954a.8.8,0,0,1-.312.2l-1.216.472L6.8,9.41A.853.853,0,0,1,7,9.09L14.492,1.6l.3-.3.864.856Z" transform="translate(-0.948 -0.002)" fill="#ffffff"/>
  </g>
</svg>
